<?xml version="1.0" encoding="UTF-8" standalone="no"?>
<!DOCTYPE svg PUBLIC "-//W3C//DTD SVG 1.1//EN"
 "http://www.w3.org/Graphics/SVG/1.1/DTD/svg11.dtd">
<!-- Generated by graphviz version 5.0.0 (20220707.1540)
 -->
<!-- Title: dependencies Pages: 1 -->
<svg width="1321pt" height="247pt"
 viewBox="0.00 0.00 1321.00 246.80" xmlns="http://www.w3.org/2000/svg" xmlns:xlink="http://www.w3.org/1999/xlink">
<g id="graph0" class="graph" transform="scale(1 1) rotate(0) translate(4 242.8)">
<title>dependencies</title>
<polygon fill="white" stroke="transparent" points="-4,4 -4,-242.8 1317,-242.8 1317,4 -4,4"/>
<text text-anchor="middle" x="656.5" y="-8.2" font-family="sans-serif" font-size="14.00">dependencies</text>
<g id="clust1" class="cluster">
<title>cluster_AppModule</title>
<polygon fill="none" stroke="black" stroke-dasharray="1,5" points="8,-32.8 8,-230.8 1305,-230.8 1305,-32.8 8,-32.8"/>
</g>
<g id="clust13" class="cluster">
<title>cluster_AppModule_providers</title>
<polygon fill="none" stroke="black" points="1163,-40.8 1163,-92.8 1297,-92.8 1297,-40.8 1163,-40.8"/>
</g>
<g id="clust12" class="cluster">
<title>cluster_AppModule_bootstrap</title>
<polygon fill="none" stroke="black" points="675,-170.8 675,-222.8 799,-222.8 799,-170.8 675,-170.8"/>
</g>
<g id="clust2" class="cluster">
<title>cluster_AppModule_declarations</title>
<polygon fill="none" stroke="black" points="16,-40.8 16,-92.8 1155,-92.8 1155,-40.8 16,-40.8"/>
</g>
<!-- AppComponent -->
<g id="node1" class="node">
<title>AppComponent</title>
<polygon fill="#ffffb3" stroke="black" points="1146.94,-84.8 1041.06,-84.8 1041.06,-48.8 1146.94,-48.8 1146.94,-84.8"/>
<text text-anchor="middle" x="1094" y="-62.6" font-family="Times,serif" font-size="14.00">AppComponent</text>
</g>
<!-- AppModule -->
<g id="node8" class="node">
<title>AppModule</title>
<polygon fill="#8dd3c7" stroke="black" points="778.66,-149.8 775.66,-153.8 754.66,-153.8 751.66,-149.8 695.34,-149.8 695.34,-113.8 778.66,-113.8 778.66,-149.8"/>
<text text-anchor="middle" x="737" y="-127.6" font-family="Times,serif" font-size="14.00">AppModule</text>
</g>
<!-- AppComponent&#45;&gt;AppModule -->
<g id="edge1" class="edge">
<title>AppComponent&#45;&gt;AppModule</title>
<path fill="none" stroke="black" d="M1094,-84.91C1094,-104.14 1094,-131.8 1094,-131.8 1094,-131.8 789,-131.8 789,-131.8"/>
<polygon fill="black" stroke="black" points="789,-128.3 779,-131.8 789,-135.3 789,-128.3"/>
</g>
<!-- HomepageComponent -->
<g id="node2" class="node">
<title>HomepageComponent</title>
<polygon fill="#ffffb3" stroke="black" points="1022.97,-84.8 881.03,-84.8 881.03,-48.8 1022.97,-48.8 1022.97,-84.8"/>
<text text-anchor="middle" x="952" y="-62.6" font-family="Times,serif" font-size="14.00">HomepageComponent</text>
</g>
<!-- HomepageComponent&#45;&gt;AppModule -->
<g id="edge2" class="edge">
<title>HomepageComponent&#45;&gt;AppModule</title>
<path fill="none" stroke="black" d="M952,-84.83C952,-101.2 952,-122.8 952,-122.8 952,-122.8 788.71,-122.8 788.71,-122.8"/>
<polygon fill="black" stroke="black" points="788.71,-119.3 778.71,-122.8 788.71,-126.3 788.71,-119.3"/>
</g>
<!-- LoginComponent -->
<g id="node3" class="node">
<title>LoginComponent</title>
<polygon fill="#ffffb3" stroke="black" points="863.27,-84.8 748.73,-84.8 748.73,-48.8 863.27,-48.8 863.27,-84.8"/>
<text text-anchor="middle" x="806" y="-62.6" font-family="Times,serif" font-size="14.00">LoginComponent</text>
</g>
<!-- LoginComponent&#45;&gt;AppModule -->
<g id="edge3" class="edge">
<title>LoginComponent&#45;&gt;AppModule</title>
<path fill="none" stroke="black" d="M763.72,-84.91C763.72,-84.91 763.72,-103.79 763.72,-103.79"/>
<polygon fill="black" stroke="black" points="760.22,-103.79 763.72,-113.79 767.22,-103.79 760.22,-103.79"/>
</g>
<!-- NavbarComponent -->
<g id="node4" class="node">
<title>NavbarComponent</title>
<polygon fill="#ffffb3" stroke="black" points="730.03,-84.8 607.97,-84.8 607.97,-48.8 730.03,-48.8 730.03,-84.8"/>
<text text-anchor="middle" x="669" y="-62.6" font-family="Times,serif" font-size="14.00">NavbarComponent</text>
</g>
<!-- NavbarComponent&#45;&gt;AppModule -->
<g id="edge4" class="edge">
<title>NavbarComponent&#45;&gt;AppModule</title>
<path fill="none" stroke="black" d="M712.72,-84.91C712.72,-84.91 712.72,-103.79 712.72,-103.79"/>
<polygon fill="black" stroke="black" points="709.22,-103.79 712.72,-113.79 716.22,-103.79 709.22,-103.79"/>
</g>
<!-- ProblemCreationComponent -->
<g id="node5" class="node">
<title>ProblemCreationComponent</title>
<polygon fill="#ffffb3" stroke="black" points="589.48,-84.8 412.52,-84.8 412.52,-48.8 589.48,-48.8 589.48,-84.8"/>
<text text-anchor="middle" x="501" y="-62.6" font-family="Times,serif" font-size="14.00">ProblemCreationComponent</text>
</g>
<!-- ProblemCreationComponent&#45;&gt;AppModule -->
<g id="edge5" class="edge">
<title>ProblemCreationComponent&#45;&gt;AppModule</title>
<path fill="none" stroke="black" d="M501,-84.83C501,-101.2 501,-122.8 501,-122.8 501,-122.8 685.08,-122.8 685.08,-122.8"/>
<polygon fill="black" stroke="black" points="685.08,-126.3 695.08,-122.8 685.08,-119.3 685.08,-126.3"/>
</g>
<!-- ProblemSelectionComponent -->
<g id="node6" class="node">
<title>ProblemSelectionComponent</title>
<polygon fill="#ffffb3" stroke="black" points="394.37,-84.8 213.63,-84.8 213.63,-48.8 394.37,-48.8 394.37,-84.8"/>
<text text-anchor="middle" x="304" y="-62.6" font-family="Times,serif" font-size="14.00">ProblemSelectionComponent</text>
</g>
<!-- ProblemSelectionComponent&#45;&gt;AppModule -->
<g id="edge6" class="edge">
<title>ProblemSelectionComponent&#45;&gt;AppModule</title>
<path fill="none" stroke="black" d="M304,-84.91C304,-104.14 304,-131.8 304,-131.8 304,-131.8 685.09,-131.8 685.09,-131.8"/>
<polygon fill="black" stroke="black" points="685.09,-135.3 695.09,-131.8 685.09,-128.3 685.09,-135.3"/>
</g>
<!-- StudentSolutionComponent -->
<g id="node7" class="node">
<title>StudentSolutionComponent</title>
<polygon fill="#ffffb3" stroke="black" points="195.57,-84.8 24.43,-84.8 24.43,-48.8 195.57,-48.8 195.57,-84.8"/>
<text text-anchor="middle" x="110" y="-62.6" font-family="Times,serif" font-size="14.00">StudentSolutionComponent</text>
</g>
<!-- StudentSolutionComponent&#45;&gt;AppModule -->
<g id="edge7" class="edge">
<title>StudentSolutionComponent&#45;&gt;AppModule</title>
<path fill="none" stroke="black" d="M110,-85.09C110,-107.01 110,-140.8 110,-140.8 110,-140.8 684.89,-140.8 684.89,-140.8"/>
<polygon fill="black" stroke="black" points="684.89,-144.3 694.89,-140.8 684.89,-137.3 684.89,-144.3"/>
</g>
<!-- AppComponent  -->
<g id="node9" class="node">
<title>AppComponent </title>
<polygon fill="#80b1d3" stroke="black" points="791.44,-214.8 682.56,-214.8 682.56,-178.8 791.44,-178.8 791.44,-214.8"/>
<text text-anchor="middle" x="737" y="-192.6" font-family="Times,serif" font-size="14.00">AppComponent </text>
</g>
<!-- AppModule&#45;&gt;AppComponent  -->
<g id="edge8" class="edge">
<title>AppModule&#45;&gt;AppComponent </title>
<path fill="none" stroke="black" stroke-dasharray="1,5" d="M737,-149.91C737,-149.91 737,-168.79 737,-168.79"/>
<polygon fill="black" stroke="black" points="733.5,-168.79 737,-178.79 740.5,-168.79 733.5,-168.79"/>
</g>
<!-- AuthService -->
<g id="node10" class="node">
<title>AuthService</title>
<ellipse fill="#fdb462" stroke="black" cx="1230" cy="-66.8" rx="59.11" ry="18"/>
<text text-anchor="middle" x="1230" y="-62.6" font-family="Times,serif" font-size="14.00">AuthService</text>
</g>
<!-- AuthService&#45;&gt;AppModule -->
<g id="edge9" class="edge">
<title>AuthService&#45;&gt;AppModule</title>
<path fill="none" stroke="black" d="M1230,-85.09C1230,-107.01 1230,-140.8 1230,-140.8 1230,-140.8 789.03,-140.8 789.03,-140.8"/>
<polygon fill="black" stroke="black" points="789.03,-137.3 779.03,-140.8 789.03,-144.3 789.03,-137.3"/>
</g>
</g>
</svg>
