<?xml version="1.0" encoding="UTF-8" standalone="no"?>
<!DOCTYPE svg PUBLIC "-//W3C//DTD SVG 1.1//EN"
 "http://www.w3.org/Graphics/SVG/1.1/DTD/svg11.dtd">
<!-- Generated by graphviz version 5.0.0 (20220707.1540)
 -->
<!-- Title: dependencies Pages: 1 -->
<svg width="2175pt" height="247pt"
 viewBox="0.00 0.00 2175.00 246.80" xmlns="http://www.w3.org/2000/svg" xmlns:xlink="http://www.w3.org/1999/xlink">
<g id="graph0" class="graph" transform="scale(1 1) rotate(0) translate(4 242.8)">
<title>dependencies</title>
<polygon fill="white" stroke="transparent" points="-4,4 -4,-242.8 2171,-242.8 2171,4 -4,4"/>
<text text-anchor="middle" x="1083.5" y="-8.2" font-family="sans-serif" font-size="14.00">dependencies</text>
<g id="clust1" class="cluster">
<title>cluster_AppModule</title>
<polygon fill="none" stroke="black" stroke-dasharray="1,5" points="8,-32.8 8,-230.8 2159,-230.8 2159,-32.8 8,-32.8"/>
</g>
<g id="clust10" class="cluster">
<title>cluster_AppModule_bootstrap</title>
<polygon fill="none" stroke="black" points="985,-170.8 985,-222.8 1109,-222.8 1109,-170.8 985,-170.8"/>
</g>
<g id="clust2" class="cluster">
<title>cluster_AppModule_declarations</title>
<polygon fill="none" stroke="black" points="1353,-40.8 1353,-92.8 2151,-92.8 2151,-40.8 1353,-40.8"/>
</g>
<g id="clust8" class="cluster">
<title>cluster_AppModule_imports</title>
<polygon fill="none" stroke="black" points="16,-40.8 16,-92.8 1345,-92.8 1345,-40.8 16,-40.8"/>
</g>
<!-- AppComponent -->
<g id="node1" class="node">
<title>AppComponent</title>
<polygon fill="#ffffb3" stroke="black" points="2142.94,-84.8 2037.06,-84.8 2037.06,-48.8 2142.94,-48.8 2142.94,-84.8"/>
<text text-anchor="middle" x="2090" y="-62.6" font-family="Times,serif" font-size="14.00">AppComponent</text>
</g>
<!-- AppModule -->
<g id="node6" class="node">
<title>AppModule</title>
<polygon fill="#8dd3c7" stroke="black" points="1088.66,-149.8 1085.66,-153.8 1064.66,-153.8 1061.66,-149.8 1005.34,-149.8 1005.34,-113.8 1088.66,-113.8 1088.66,-149.8"/>
<text text-anchor="middle" x="1047" y="-127.6" font-family="Times,serif" font-size="14.00">AppModule</text>
</g>
<!-- AppComponent&#45;&gt;AppModule -->
<g id="edge1" class="edge">
<title>AppComponent&#45;&gt;AppModule</title>
<path fill="none" stroke="black" d="M2090,-84.89C2090,-107.93 2090,-144.8 2090,-144.8 2090,-144.8 1098.85,-144.8 1098.85,-144.8"/>
<polygon fill="black" stroke="black" points="1098.85,-141.3 1088.85,-144.8 1098.85,-148.3 1098.85,-141.3"/>
</g>
<!-- NavbarComponent -->
<g id="node2" class="node">
<title>NavbarComponent</title>
<polygon fill="#ffffb3" stroke="black" points="2019.03,-84.8 1896.97,-84.8 1896.97,-48.8 2019.03,-48.8 2019.03,-84.8"/>
<text text-anchor="middle" x="1958" y="-62.6" font-family="Times,serif" font-size="14.00">NavbarComponent</text>
</g>
<!-- NavbarComponent&#45;&gt;AppModule -->
<g id="edge2" class="edge">
<title>NavbarComponent&#45;&gt;AppModule</title>
<path fill="none" stroke="black" d="M1958,-84.84C1958,-106.46 1958,-139.8 1958,-139.8 1958,-139.8 1098.81,-139.8 1098.81,-139.8"/>
<polygon fill="black" stroke="black" points="1098.81,-136.3 1088.81,-139.8 1098.81,-143.3 1098.81,-136.3"/>
</g>
<!-- HomepageComponent -->
<g id="node3" class="node">
<title>HomepageComponent</title>
<polygon fill="#ffffb3" stroke="black" points="1878.97,-84.8 1737.03,-84.8 1737.03,-48.8 1878.97,-48.8 1878.97,-84.8"/>
<text text-anchor="middle" x="1808" y="-62.6" font-family="Times,serif" font-size="14.00">HomepageComponent</text>
</g>
<!-- HomepageComponent&#45;&gt;AppModule -->
<g id="edge3" class="edge">
<title>HomepageComponent&#45;&gt;AppModule</title>
<path fill="none" stroke="black" d="M1808,-85.02C1808,-105.17 1808,-134.8 1808,-134.8 1808,-134.8 1098.73,-134.8 1098.73,-134.8"/>
<polygon fill="black" stroke="black" points="1098.73,-131.3 1088.73,-134.8 1098.73,-138.3 1098.73,-131.3"/>
</g>
<!-- TeacherLoginComponent -->
<g id="node4" class="node">
<title>TeacherLoginComponent</title>
<polygon fill="#ffffb3" stroke="black" points="1718.84,-84.8 1559.16,-84.8 1559.16,-48.8 1718.84,-48.8 1718.84,-84.8"/>
<text text-anchor="middle" x="1639" y="-62.6" font-family="Times,serif" font-size="14.00">TeacherLoginComponent</text>
</g>
<!-- TeacherLoginComponent&#45;&gt;AppModule -->
<g id="edge4" class="edge">
<title>TeacherLoginComponent&#45;&gt;AppModule</title>
<path fill="none" stroke="black" d="M1639,-85.02C1639,-103.63 1639,-129.8 1639,-129.8 1639,-129.8 1099.1,-129.8 1099.1,-129.8"/>
<polygon fill="black" stroke="black" points="1099.1,-126.3 1089.1,-129.8 1099.1,-133.3 1099.1,-126.3"/>
</g>
<!-- ProblemSelectionComponent -->
<g id="node5" class="node">
<title>ProblemSelectionComponent</title>
<polygon fill="#ffffb3" stroke="black" points="1541.37,-84.8 1360.63,-84.8 1360.63,-48.8 1541.37,-48.8 1541.37,-84.8"/>
<text text-anchor="middle" x="1451" y="-62.6" font-family="Times,serif" font-size="14.00">ProblemSelectionComponent</text>
</g>
<!-- ProblemSelectionComponent&#45;&gt;AppModule -->
<g id="edge5" class="edge">
<title>ProblemSelectionComponent&#45;&gt;AppModule</title>
<path fill="none" stroke="black" d="M1451,-84.83C1451,-101.86 1451,-124.8 1451,-124.8 1451,-124.8 1098.71,-124.8 1098.71,-124.8"/>
<polygon fill="black" stroke="black" points="1098.71,-121.3 1088.71,-124.8 1098.71,-128.3 1098.71,-121.3"/>
</g>
<!-- AppComponent  -->
<g id="node16" class="node">
<title>AppComponent </title>
<polygon fill="#80b1d3" stroke="black" points="1101.44,-214.8 992.56,-214.8 992.56,-178.8 1101.44,-178.8 1101.44,-214.8"/>
<text text-anchor="middle" x="1047" y="-192.6" font-family="Times,serif" font-size="14.00">AppComponent </text>
</g>
<!-- AppModule&#45;&gt;AppComponent  -->
<g id="edge15" class="edge">
<title>AppModule&#45;&gt;AppComponent </title>
<path fill="none" stroke="black" stroke-dasharray="1,5" d="M1047,-149.91C1047,-149.91 1047,-168.79 1047,-168.79"/>
<polygon fill="black" stroke="black" points="1043.5,-168.79 1047,-178.79 1050.5,-168.79 1043.5,-168.79"/>
</g>
<!-- BrowserModule -->
<g id="node7" class="node">
<title>BrowserModule</title>
<polygon fill="#8dd3c7" stroke="black" points="1337.49,-84.8 1334.49,-88.8 1313.49,-88.8 1310.49,-84.8 1230.51,-84.8 1230.51,-48.8 1337.49,-48.8 1337.49,-84.8"/>
<text text-anchor="middle" x="1284" y="-62.6" font-family="Times,serif" font-size="14.00">BrowserModule</text>
</g>
<!-- BrowserModule&#45;&gt;AppModule -->
<g id="edge6" class="edge">
<title>BrowserModule&#45;&gt;AppModule</title>
<path fill="none" stroke="black" d="M1284,-85.04C1284,-100.37 1284,-119.8 1284,-119.8 1284,-119.8 1098.83,-119.8 1098.83,-119.8"/>
<polygon fill="black" stroke="black" points="1098.83,-116.3 1088.83,-119.8 1098.83,-123.3 1098.83,-116.3"/>
</g>
<!-- BrowserAnimationsModule -->
<g id="node8" class="node">
<title>BrowserAnimationsModule</title>
<polygon fill="#8dd3c7" stroke="black" points="1212.32,-84.8 1209.32,-88.8 1188.32,-88.8 1185.32,-84.8 1039.68,-84.8 1039.68,-48.8 1212.32,-48.8 1212.32,-84.8"/>
<text text-anchor="middle" x="1126" y="-62.6" font-family="Times,serif" font-size="14.00">BrowserAnimationsModule</text>
</g>
<!-- BrowserAnimationsModule&#45;&gt;AppModule -->
<g id="edge7" class="edge">
<title>BrowserAnimationsModule&#45;&gt;AppModule</title>
<path fill="none" stroke="black" d="M1064.34,-84.91C1064.34,-84.91 1064.34,-103.79 1064.34,-103.79"/>
<polygon fill="black" stroke="black" points="1060.84,-103.79 1064.34,-113.79 1067.84,-103.79 1060.84,-103.79"/>
</g>
<!-- MatIconModule -->
<g id="node9" class="node">
<title>MatIconModule</title>
<polygon fill="#8dd3c7" stroke="black" points="1021.48,-84.8 1018.48,-88.8 997.48,-88.8 994.48,-84.8 914.52,-84.8 914.52,-48.8 1021.48,-48.8 1021.48,-84.8"/>
<text text-anchor="middle" x="968" y="-62.6" font-family="Times,serif" font-size="14.00">MatIconModule</text>
</g>
<!-- MatIconModule&#45;&gt;AppModule -->
<g id="edge8" class="edge">
<title>MatIconModule&#45;&gt;AppModule</title>
<path fill="none" stroke="black" d="M1013.33,-84.91C1013.33,-84.91 1013.33,-103.79 1013.33,-103.79"/>
<polygon fill="black" stroke="black" points="1009.83,-103.79 1013.33,-113.79 1016.83,-103.79 1009.83,-103.79"/>
</g>
<!-- MatFormFieldModule -->
<g id="node10" class="node">
<title>MatFormFieldModule</title>
<polygon fill="#8dd3c7" stroke="black" points="896.72,-84.8 893.72,-88.8 872.72,-88.8 869.72,-84.8 755.28,-84.8 755.28,-48.8 896.72,-48.8 896.72,-84.8"/>
<text text-anchor="middle" x="826" y="-62.6" font-family="Times,serif" font-size="14.00">MatFormFieldModule</text>
</g>
<!-- MatFormFieldModule&#45;&gt;AppModule -->
<g id="edge9" class="edge">
<title>MatFormFieldModule&#45;&gt;AppModule</title>
<path fill="none" stroke="black" d="M826,-85.04C826,-100.37 826,-119.8 826,-119.8 826,-119.8 995.17,-119.8 995.17,-119.8"/>
<polygon fill="black" stroke="black" points="995.17,-123.3 1005.17,-119.8 995.17,-116.3 995.17,-123.3"/>
</g>
<!-- MatInputModule -->
<g id="node11" class="node">
<title>MatInputModule</title>
<polygon fill="#8dd3c7" stroke="black" points="737.66,-84.8 734.66,-88.8 713.66,-88.8 710.66,-84.8 626.34,-84.8 626.34,-48.8 737.66,-48.8 737.66,-84.8"/>
<text text-anchor="middle" x="682" y="-62.6" font-family="Times,serif" font-size="14.00">MatInputModule</text>
</g>
<!-- MatInputModule&#45;&gt;AppModule -->
<g id="edge10" class="edge">
<title>MatInputModule&#45;&gt;AppModule</title>
<path fill="none" stroke="black" d="M682,-84.83C682,-101.86 682,-124.8 682,-124.8 682,-124.8 995.13,-124.8 995.13,-124.8"/>
<polygon fill="black" stroke="black" points="995.13,-128.3 1005.13,-124.8 995.13,-121.3 995.13,-128.3"/>
</g>
<!-- MatButtonModule -->
<g id="node12" class="node">
<title>MatButtonModule</title>
<polygon fill="#8dd3c7" stroke="black" points="608.22,-84.8 605.22,-88.8 584.22,-88.8 581.22,-84.8 487.78,-84.8 487.78,-48.8 608.22,-48.8 608.22,-84.8"/>
<text text-anchor="middle" x="548" y="-62.6" font-family="Times,serif" font-size="14.00">MatButtonModule</text>
</g>
<!-- MatButtonModule&#45;&gt;AppModule -->
<g id="edge11" class="edge">
<title>MatButtonModule&#45;&gt;AppModule</title>
<path fill="none" stroke="black" d="M548,-85.02C548,-103.63 548,-129.8 548,-129.8 548,-129.8 995.31,-129.8 995.31,-129.8"/>
<polygon fill="black" stroke="black" points="995.31,-133.3 1005.31,-129.8 995.31,-126.3 995.31,-133.3"/>
</g>
<!-- MatMenuModule -->
<g id="node13" class="node">
<title>MatMenuModule</title>
<polygon fill="#8dd3c7" stroke="black" points="470.27,-84.8 467.27,-88.8 446.27,-88.8 443.27,-84.8 355.73,-84.8 355.73,-48.8 470.27,-48.8 470.27,-84.8"/>
<text text-anchor="middle" x="413" y="-62.6" font-family="Times,serif" font-size="14.00">MatMenuModule</text>
</g>
<!-- MatMenuModule&#45;&gt;AppModule -->
<g id="edge12" class="edge">
<title>MatMenuModule&#45;&gt;AppModule</title>
<path fill="none" stroke="black" d="M413,-85.02C413,-105.17 413,-134.8 413,-134.8 413,-134.8 994.91,-134.8 994.91,-134.8"/>
<polygon fill="black" stroke="black" points="994.91,-138.3 1004.91,-134.8 994.91,-131.3 994.91,-138.3"/>
</g>
<!-- RouterModule.forRoot(args) -->
<g id="node14" class="node">
<title>RouterModule.forRoot(args)</title>
<polygon fill="#8dd3c7" stroke="black" points="337.86,-84.8 334.86,-88.8 313.86,-88.8 310.86,-84.8 160.14,-84.8 160.14,-48.8 337.86,-48.8 337.86,-84.8"/>
<text text-anchor="middle" x="249" y="-62.6" font-family="Times,serif" font-size="14.00">RouterModule.forRoot(args)</text>
</g>
<!-- RouterModule.forRoot(args)&#45;&gt;AppModule -->
<g id="edge13" class="edge">
<title>RouterModule.forRoot(args)&#45;&gt;AppModule</title>
<path fill="none" stroke="black" d="M249,-84.84C249,-106.46 249,-139.8 249,-139.8 249,-139.8 995.22,-139.8 995.22,-139.8"/>
<polygon fill="black" stroke="black" points="995.22,-143.3 1005.22,-139.8 995.22,-136.3 995.22,-143.3"/>
</g>
<!-- HttpClientModule -->
<g id="node15" class="node">
<title>HttpClientModule</title>
<polygon fill="#8dd3c7" stroke="black" points="142.16,-84.8 139.16,-88.8 118.16,-88.8 115.16,-84.8 23.84,-84.8 23.84,-48.8 142.16,-48.8 142.16,-84.8"/>
<text text-anchor="middle" x="83" y="-62.6" font-family="Times,serif" font-size="14.00">HttpClientModule</text>
</g>
<!-- HttpClientModule&#45;&gt;AppModule -->
<g id="edge14" class="edge">
<title>HttpClientModule&#45;&gt;AppModule</title>
<path fill="none" stroke="black" d="M83,-84.89C83,-107.93 83,-144.8 83,-144.8 83,-144.8 995.27,-144.8 995.27,-144.8"/>
<polygon fill="black" stroke="black" points="995.27,-148.3 1005.27,-144.8 995.27,-141.3 995.27,-148.3"/>
</g>
</g>
</svg>
