<?xml version="1.0" encoding="UTF-8" standalone="no"?>
<!DOCTYPE svg PUBLIC "-//W3C//DTD SVG 1.1//EN"
 "http://www.w3.org/Graphics/SVG/1.1/DTD/svg11.dtd">
<!-- Generated by graphviz version 5.0.0 (20220707.1540)
 -->
<!-- Title: dependencies Pages: 1 -->
<svg width="2921pt" height="247pt"
 viewBox="0.00 0.00 2921.00 246.80" xmlns="http://www.w3.org/2000/svg" xmlns:xlink="http://www.w3.org/1999/xlink">
<g id="graph0" class="graph" transform="scale(1 1) rotate(0) translate(4 242.8)">
<title>dependencies</title>
<polygon fill="white" stroke="transparent" points="-4,4 -4,-242.8 2917,-242.8 2917,4 -4,4"/>
<text text-anchor="middle" x="1456.5" y="-8.2" font-family="sans-serif" font-size="14.00">dependencies</text>
<g id="clust1" class="cluster">
<title>cluster_AppModule</title>
<polygon fill="none" stroke="black" stroke-dasharray="1,5" points="8,-32.8 8,-230.8 2905,-230.8 2905,-32.8 8,-32.8"/>
</g>
<g id="clust11" class="cluster">
<title>cluster_AppModule_bootstrap</title>
<polygon fill="none" stroke="black" points="1516,-170.8 1516,-222.8 1640,-222.8 1640,-170.8 1516,-170.8"/>
</g>
<g id="clust9" class="cluster">
<title>cluster_AppModule_imports</title>
<polygon fill="none" stroke="black" points="1017,-40.8 1017,-92.8 2897,-92.8 2897,-40.8 1017,-40.8"/>
</g>
<g id="clust2" class="cluster">
<title>cluster_AppModule_declarations</title>
<polygon fill="none" stroke="black" points="16,-40.8 16,-92.8 1009,-92.8 1009,-40.8 16,-40.8"/>
</g>
<!-- AppComponent -->
<g id="node1" class="node">
<title>AppComponent</title>
<polygon fill="#ffffb3" stroke="black" points="1000.94,-84.8 895.06,-84.8 895.06,-48.8 1000.94,-48.8 1000.94,-84.8"/>
<text text-anchor="middle" x="948" y="-62.6" font-family="Times,serif" font-size="14.00">AppComponent</text>
</g>
<!-- AppModule -->
<g id="node7" class="node">
<title>AppModule</title>
<polygon fill="#8dd3c7" stroke="black" points="1619.66,-149.8 1616.66,-153.8 1595.66,-153.8 1592.66,-149.8 1536.34,-149.8 1536.34,-113.8 1619.66,-113.8 1619.66,-149.8"/>
<text text-anchor="middle" x="1578" y="-127.6" font-family="Times,serif" font-size="14.00">AppModule</text>
</g>
<!-- AppComponent&#45;&gt;AppModule -->
<g id="edge1" class="edge">
<title>AppComponent&#45;&gt;AppModule</title>
<path fill="none" stroke="black" d="M948,-85.07C948,-103.36 948,-128.8 948,-128.8 948,-128.8 1526.18,-128.8 1526.18,-128.8"/>
<polygon fill="black" stroke="black" points="1526.18,-132.3 1536.18,-128.8 1526.18,-125.3 1526.18,-132.3"/>
</g>
<!-- NavbarComponent -->
<g id="node2" class="node">
<title>NavbarComponent</title>
<polygon fill="#ffffb3" stroke="black" points="877.03,-84.8 754.97,-84.8 754.97,-48.8 877.03,-48.8 877.03,-84.8"/>
<text text-anchor="middle" x="816" y="-62.6" font-family="Times,serif" font-size="14.00">NavbarComponent</text>
</g>
<!-- NavbarComponent&#45;&gt;AppModule -->
<g id="edge2" class="edge">
<title>NavbarComponent&#45;&gt;AppModule</title>
<path fill="none" stroke="black" d="M816,-84.91C816,-104.14 816,-131.8 816,-131.8 816,-131.8 1526.22,-131.8 1526.22,-131.8"/>
<polygon fill="black" stroke="black" points="1526.22,-135.3 1536.22,-131.8 1526.22,-128.3 1526.22,-135.3"/>
</g>
<!-- HomepageComponent -->
<g id="node3" class="node">
<title>HomepageComponent</title>
<polygon fill="#ffffb3" stroke="black" points="736.97,-84.8 595.03,-84.8 595.03,-48.8 736.97,-48.8 736.97,-84.8"/>
<text text-anchor="middle" x="666" y="-62.6" font-family="Times,serif" font-size="14.00">HomepageComponent</text>
</g>
<!-- HomepageComponent&#45;&gt;AppModule -->
<g id="edge3" class="edge">
<title>HomepageComponent&#45;&gt;AppModule</title>
<path fill="none" stroke="black" d="M666,-84.93C666,-105.37 666,-135.8 666,-135.8 666,-135.8 1526.14,-135.8 1526.14,-135.8"/>
<polygon fill="black" stroke="black" points="1526.14,-139.3 1536.14,-135.8 1526.14,-132.3 1526.14,-139.3"/>
</g>
<!-- TeacherLoginComponent -->
<g id="node4" class="node">
<title>TeacherLoginComponent</title>
<polygon fill="#ffffb3" stroke="black" points="576.84,-84.8 417.16,-84.8 417.16,-48.8 576.84,-48.8 576.84,-84.8"/>
<text text-anchor="middle" x="497" y="-62.6" font-family="Times,serif" font-size="14.00">TeacherLoginComponent</text>
</g>
<!-- TeacherLoginComponent&#45;&gt;AppModule -->
<g id="edge4" class="edge">
<title>TeacherLoginComponent&#45;&gt;AppModule</title>
<path fill="none" stroke="black" d="M497,-84.84C497,-106.46 497,-139.8 497,-139.8 497,-139.8 1526.29,-139.8 1526.29,-139.8"/>
<polygon fill="black" stroke="black" points="1526.29,-143.3 1536.29,-139.8 1526.29,-136.3 1526.29,-143.3"/>
</g>
<!-- ProblemSelectionComponent -->
<g id="node5" class="node">
<title>ProblemSelectionComponent</title>
<polygon fill="#ffffb3" stroke="black" points="399.37,-84.8 218.63,-84.8 218.63,-48.8 399.37,-48.8 399.37,-84.8"/>
<text text-anchor="middle" x="309" y="-62.6" font-family="Times,serif" font-size="14.00">ProblemSelectionComponent</text>
</g>
<!-- ProblemSelectionComponent&#45;&gt;AppModule -->
<g id="edge5" class="edge">
<title>ProblemSelectionComponent&#45;&gt;AppModule</title>
<path fill="none" stroke="black" d="M309,-84.81C309,-107.29 309,-142.8 309,-142.8 309,-142.8 1526.14,-142.8 1526.14,-142.8"/>
<polygon fill="black" stroke="black" points="1526.14,-146.3 1536.14,-142.8 1526.14,-139.3 1526.14,-146.3"/>
</g>
<!-- ProblemCreationComponent -->
<g id="node6" class="node">
<title>ProblemCreationComponent</title>
<polygon fill="#ffffb3" stroke="black" points="200.48,-84.8 23.52,-84.8 23.52,-48.8 200.48,-48.8 200.48,-84.8"/>
<text text-anchor="middle" x="112" y="-62.6" font-family="Times,serif" font-size="14.00">ProblemCreationComponent</text>
</g>
<!-- ProblemCreationComponent&#45;&gt;AppModule -->
<g id="edge6" class="edge">
<title>ProblemCreationComponent&#45;&gt;AppModule</title>
<path fill="none" stroke="black" d="M112,-84.95C112,-108.56 112,-146.8 112,-146.8 112,-146.8 1526.1,-146.8 1526.1,-146.8"/>
<polygon fill="black" stroke="black" points="1526.1,-150.3 1536.1,-146.8 1526.1,-143.3 1526.1,-150.3"/>
</g>
<!-- AppComponent  -->
<g id="node21" class="node">
<title>AppComponent </title>
<polygon fill="#80b1d3" stroke="black" points="1632.44,-214.8 1523.56,-214.8 1523.56,-178.8 1632.44,-178.8 1632.44,-214.8"/>
<text text-anchor="middle" x="1578" y="-192.6" font-family="Times,serif" font-size="14.00">AppComponent </text>
</g>
<!-- AppModule&#45;&gt;AppComponent  -->
<g id="edge20" class="edge">
<title>AppModule&#45;&gt;AppComponent </title>
<path fill="none" stroke="black" stroke-dasharray="1,5" d="M1578,-149.91C1578,-149.91 1578,-168.79 1578,-168.79"/>
<polygon fill="black" stroke="black" points="1574.5,-168.79 1578,-178.79 1581.5,-168.79 1574.5,-168.79"/>
</g>
<!-- BrowserModule -->
<g id="node8" class="node">
<title>BrowserModule</title>
<polygon fill="#8dd3c7" stroke="black" points="2889.49,-84.8 2886.49,-88.8 2865.49,-88.8 2862.49,-84.8 2782.51,-84.8 2782.51,-48.8 2889.49,-48.8 2889.49,-84.8"/>
<text text-anchor="middle" x="2836" y="-62.6" font-family="Times,serif" font-size="14.00">BrowserModule</text>
</g>
<!-- BrowserModule&#45;&gt;AppModule -->
<g id="edge7" class="edge">
<title>BrowserModule&#45;&gt;AppModule</title>
<path fill="none" stroke="black" d="M2836,-84.95C2836,-108.56 2836,-146.8 2836,-146.8 2836,-146.8 1629.86,-146.8 1629.86,-146.8"/>
<polygon fill="black" stroke="black" points="1629.86,-143.3 1619.86,-146.8 1629.86,-150.3 1629.86,-143.3"/>
</g>
<!-- BrowserAnimationsModule -->
<g id="node9" class="node">
<title>BrowserAnimationsModule</title>
<polygon fill="#8dd3c7" stroke="black" points="2764.32,-84.8 2761.32,-88.8 2740.32,-88.8 2737.32,-84.8 2591.68,-84.8 2591.68,-48.8 2764.32,-48.8 2764.32,-84.8"/>
<text text-anchor="middle" x="2678" y="-62.6" font-family="Times,serif" font-size="14.00">BrowserAnimationsModule</text>
</g>
<!-- BrowserAnimationsModule&#45;&gt;AppModule -->
<g id="edge8" class="edge">
<title>BrowserAnimationsModule&#45;&gt;AppModule</title>
<path fill="none" stroke="black" d="M2678,-84.81C2678,-107.29 2678,-142.8 2678,-142.8 2678,-142.8 1629.78,-142.8 1629.78,-142.8"/>
<polygon fill="black" stroke="black" points="1629.78,-139.3 1619.78,-142.8 1629.78,-146.3 1629.78,-139.3"/>
</g>
<!-- MatIconModule -->
<g id="node10" class="node">
<title>MatIconModule</title>
<polygon fill="#8dd3c7" stroke="black" points="2573.48,-84.8 2570.48,-88.8 2549.48,-88.8 2546.48,-84.8 2466.52,-84.8 2466.52,-48.8 2573.48,-48.8 2573.48,-84.8"/>
<text text-anchor="middle" x="2520" y="-62.6" font-family="Times,serif" font-size="14.00">MatIconModule</text>
</g>
<!-- MatIconModule&#45;&gt;AppModule -->
<g id="edge9" class="edge">
<title>MatIconModule&#45;&gt;AppModule</title>
<path fill="none" stroke="black" d="M2520,-84.84C2520,-106.46 2520,-139.8 2520,-139.8 2520,-139.8 1629.69,-139.8 1629.69,-139.8"/>
<polygon fill="black" stroke="black" points="1629.69,-136.3 1619.69,-139.8 1629.69,-143.3 1629.69,-136.3"/>
</g>
<!-- MatFormFieldModule -->
<g id="node11" class="node">
<title>MatFormFieldModule</title>
<polygon fill="#8dd3c7" stroke="black" points="2448.72,-84.8 2445.72,-88.8 2424.72,-88.8 2421.72,-84.8 2307.28,-84.8 2307.28,-48.8 2448.72,-48.8 2448.72,-84.8"/>
<text text-anchor="middle" x="2378" y="-62.6" font-family="Times,serif" font-size="14.00">MatFormFieldModule</text>
</g>
<!-- MatFormFieldModule&#45;&gt;AppModule -->
<g id="edge10" class="edge">
<title>MatFormFieldModule&#45;&gt;AppModule</title>
<path fill="none" stroke="black" d="M2378,-84.93C2378,-105.37 2378,-135.8 2378,-135.8 2378,-135.8 1629.89,-135.8 1629.89,-135.8"/>
<polygon fill="black" stroke="black" points="1629.89,-132.3 1619.89,-135.8 1629.89,-139.3 1629.89,-132.3"/>
</g>
<!-- MatInputModule -->
<g id="node12" class="node">
<title>MatInputModule</title>
<polygon fill="#8dd3c7" stroke="black" points="2289.66,-84.8 2286.66,-88.8 2265.66,-88.8 2262.66,-84.8 2178.34,-84.8 2178.34,-48.8 2289.66,-48.8 2289.66,-84.8"/>
<text text-anchor="middle" x="2234" y="-62.6" font-family="Times,serif" font-size="14.00">MatInputModule</text>
</g>
<!-- MatInputModule&#45;&gt;AppModule -->
<g id="edge11" class="edge">
<title>MatInputModule&#45;&gt;AppModule</title>
<path fill="none" stroke="black" d="M2234,-84.91C2234,-104.14 2234,-131.8 2234,-131.8 2234,-131.8 1629.78,-131.8 1629.78,-131.8"/>
<polygon fill="black" stroke="black" points="1629.78,-128.3 1619.78,-131.8 1629.78,-135.3 1629.78,-128.3"/>
</g>
<!-- MatButtonModule -->
<g id="node13" class="node">
<title>MatButtonModule</title>
<polygon fill="#8dd3c7" stroke="black" points="2160.22,-84.8 2157.22,-88.8 2136.22,-88.8 2133.22,-84.8 2039.78,-84.8 2039.78,-48.8 2160.22,-48.8 2160.22,-84.8"/>
<text text-anchor="middle" x="2100" y="-62.6" font-family="Times,serif" font-size="14.00">MatButtonModule</text>
</g>
<!-- MatButtonModule&#45;&gt;AppModule -->
<g id="edge12" class="edge">
<title>MatButtonModule&#45;&gt;AppModule</title>
<path fill="none" stroke="black" d="M2100,-85.07C2100,-103.36 2100,-128.8 2100,-128.8 2100,-128.8 1629.84,-128.8 1629.84,-128.8"/>
<polygon fill="black" stroke="black" points="1629.84,-125.3 1619.84,-128.8 1629.84,-132.3 1629.84,-125.3"/>
</g>
<!-- MatMenuModule -->
<g id="node14" class="node">
<title>MatMenuModule</title>
<polygon fill="#8dd3c7" stroke="black" points="2022.27,-84.8 2019.27,-88.8 1998.27,-88.8 1995.27,-84.8 1907.73,-84.8 1907.73,-48.8 2022.27,-48.8 2022.27,-84.8"/>
<text text-anchor="middle" x="1965" y="-62.6" font-family="Times,serif" font-size="14.00">MatMenuModule</text>
</g>
<!-- MatMenuModule&#45;&gt;AppModule -->
<g id="edge13" class="edge">
<title>MatMenuModule&#45;&gt;AppModule</title>
<path fill="none" stroke="black" d="M1965,-84.83C1965,-101.86 1965,-124.8 1965,-124.8 1965,-124.8 1629.78,-124.8 1629.78,-124.8"/>
<polygon fill="black" stroke="black" points="1629.78,-121.3 1619.78,-124.8 1629.78,-128.3 1629.78,-121.3"/>
</g>
<!-- MatTableModule -->
<g id="node15" class="node">
<title>MatTableModule</title>
<polygon fill="#8dd3c7" stroke="black" points="1889.97,-84.8 1886.97,-88.8 1865.97,-88.8 1862.97,-84.8 1776.03,-84.8 1776.03,-48.8 1889.97,-48.8 1889.97,-84.8"/>
<text text-anchor="middle" x="1833" y="-62.6" font-family="Times,serif" font-size="14.00">MatTableModule</text>
</g>
<!-- MatTableModule&#45;&gt;AppModule -->
<g id="edge14" class="edge">
<title>MatTableModule&#45;&gt;AppModule</title>
<path fill="none" stroke="black" d="M1833,-84.81C1833,-100.85 1833,-121.8 1833,-121.8 1833,-121.8 1629.82,-121.8 1629.82,-121.8"/>
<polygon fill="black" stroke="black" points="1629.82,-118.3 1619.82,-121.8 1629.82,-125.3 1629.82,-118.3"/>
</g>
<!-- FormsModule -->
<g id="node16" class="node">
<title>FormsModule</title>
<polygon fill="#8dd3c7" stroke="black" points="1757.84,-84.8 1754.84,-88.8 1733.84,-88.8 1730.84,-84.8 1662.16,-84.8 1662.16,-48.8 1757.84,-48.8 1757.84,-84.8"/>
<text text-anchor="middle" x="1710" y="-62.6" font-family="Times,serif" font-size="14.00">FormsModule</text>
</g>
<!-- FormsModule&#45;&gt;AppModule -->
<g id="edge15" class="edge">
<title>FormsModule&#45;&gt;AppModule</title>
<path fill="none" stroke="black" d="M1710,-84.92C1710,-99.58 1710,-117.8 1710,-117.8 1710,-117.8 1629.77,-117.8 1629.77,-117.8"/>
<polygon fill="black" stroke="black" points="1629.77,-114.3 1619.77,-117.8 1629.77,-121.3 1629.77,-114.3"/>
</g>
<!-- NgComponentOutlet -->
<g id="node17" class="node">
<title>NgComponentOutlet</title>
<polygon fill="#8dd3c7" stroke="black" points="1644.94,-84.8 1641.94,-88.8 1620.94,-88.8 1617.94,-84.8 1511.06,-84.8 1511.06,-48.8 1644.94,-48.8 1644.94,-84.8"/>
<text text-anchor="middle" x="1578" y="-62.6" font-family="Times,serif" font-size="14.00">NgComponentOutlet</text>
</g>
<!-- NgComponentOutlet&#45;&gt;AppModule -->
<g id="edge16" class="edge">
<title>NgComponentOutlet&#45;&gt;AppModule</title>
<path fill="none" stroke="black" d="M1578,-84.91C1578,-84.91 1578,-103.79 1578,-103.79"/>
<polygon fill="black" stroke="black" points="1574.5,-103.79 1578,-113.79 1581.5,-103.79 1574.5,-103.79"/>
</g>
<!-- MatSnackBarModule -->
<g id="node18" class="node">
<title>MatSnackBarModule</title>
<polygon fill="#8dd3c7" stroke="black" points="1493.03,-84.8 1490.03,-88.8 1469.03,-88.8 1466.03,-84.8 1356.97,-84.8 1356.97,-48.8 1493.03,-48.8 1493.03,-84.8"/>
<text text-anchor="middle" x="1425" y="-62.6" font-family="Times,serif" font-size="14.00">MatSnackBarModule</text>
</g>
<!-- MatSnackBarModule&#45;&gt;AppModule -->
<g id="edge17" class="edge">
<title>MatSnackBarModule&#45;&gt;AppModule</title>
<path fill="none" stroke="black" d="M1425,-84.92C1425,-99.58 1425,-117.8 1425,-117.8 1425,-117.8 1526.19,-117.8 1526.19,-117.8"/>
<polygon fill="black" stroke="black" points="1526.19,-121.3 1536.19,-117.8 1526.19,-114.3 1526.19,-121.3"/>
</g>
<!-- RouterModule.forRoot(args) -->
<g id="node19" class="node">
<title>RouterModule.forRoot(args)</title>
<polygon fill="#8dd3c7" stroke="black" points="1338.86,-84.8 1335.86,-88.8 1314.86,-88.8 1311.86,-84.8 1161.14,-84.8 1161.14,-48.8 1338.86,-48.8 1338.86,-84.8"/>
<text text-anchor="middle" x="1250" y="-62.6" font-family="Times,serif" font-size="14.00">RouterModule.forRoot(args)</text>
</g>
<!-- RouterModule.forRoot(args)&#45;&gt;AppModule -->
<g id="edge18" class="edge">
<title>RouterModule.forRoot(args)&#45;&gt;AppModule</title>
<path fill="none" stroke="black" d="M1250,-84.81C1250,-100.85 1250,-121.8 1250,-121.8 1250,-121.8 1526.13,-121.8 1526.13,-121.8"/>
<polygon fill="black" stroke="black" points="1526.13,-125.3 1536.13,-121.8 1526.13,-118.3 1526.13,-125.3"/>
</g>
<!-- HttpClientModule -->
<g id="node20" class="node">
<title>HttpClientModule</title>
<polygon fill="#8dd3c7" stroke="black" points="1143.16,-84.8 1140.16,-88.8 1119.16,-88.8 1116.16,-84.8 1024.84,-84.8 1024.84,-48.8 1143.16,-48.8 1143.16,-84.8"/>
<text text-anchor="middle" x="1084" y="-62.6" font-family="Times,serif" font-size="14.00">HttpClientModule</text>
</g>
<!-- HttpClientModule&#45;&gt;AppModule -->
<g id="edge19" class="edge">
<title>HttpClientModule&#45;&gt;AppModule</title>
<path fill="none" stroke="black" d="M1084,-84.83C1084,-101.86 1084,-124.8 1084,-124.8 1084,-124.8 1526.31,-124.8 1526.31,-124.8"/>
<polygon fill="black" stroke="black" points="1526.31,-128.3 1536.31,-124.8 1526.31,-121.3 1526.31,-128.3"/>
</g>
</g>
</svg>
