<?xml version="1.0" encoding="UTF-8" standalone="no"?>
<!DOCTYPE svg PUBLIC "-//W3C//DTD SVG 1.1//EN"
 "http://www.w3.org/Graphics/SVG/1.1/DTD/svg11.dtd">
<!-- Generated by graphviz version 5.0.0 (20220707.1540)
 -->
<!-- Title: dependencies Pages: 1 -->
<svg width="1321pt" height="247pt"
 viewBox="0.00 0.00 1321.00 246.80" xmlns="http://www.w3.org/2000/svg" xmlns:xlink="http://www.w3.org/1999/xlink">
<g id="graph0" class="graph" transform="scale(1 1) rotate(0) translate(4 242.8)">
<title>dependencies</title>
<polygon fill="white" stroke="transparent" points="-4,4 -4,-242.8 1317,-242.8 1317,4 -4,4"/>
<text text-anchor="middle" x="656.5" y="-8.2" font-family="sans-serif" font-size="14.00">dependencies</text>
<g id="clust1" class="cluster">
<title>cluster_AppModule</title>
<polygon fill="none" stroke="black" stroke-dasharray="1,5" points="8,-32.8 8,-230.8 1305,-230.8 1305,-32.8 8,-32.8"/>
</g>
<g id="clust2" class="cluster">
<title>cluster_AppModule_declarations</title>
<polygon fill="none" stroke="black" points="158,-40.8 158,-92.8 1297,-92.8 1297,-40.8 158,-40.8"/>
</g>
<g id="clust12" class="cluster">
<title>cluster_AppModule_bootstrap</title>
<polygon fill="none" stroke="black" points="665,-170.8 665,-222.8 789,-222.8 789,-170.8 665,-170.8"/>
</g>
<g id="clust13" class="cluster">
<title>cluster_AppModule_providers</title>
<polygon fill="none" stroke="black" points="16,-40.8 16,-92.8 150,-92.8 150,-40.8 16,-40.8"/>
</g>
<!-- AppComponent -->
<g id="node1" class="node">
<title>AppComponent</title>
<polygon fill="#ffffb3" stroke="black" points="1288.94,-84.8 1183.06,-84.8 1183.06,-48.8 1288.94,-48.8 1288.94,-84.8"/>
<text text-anchor="middle" x="1236" y="-62.6" font-family="Times,serif" font-size="14.00">AppComponent</text>
</g>
<!-- AppModule -->
<g id="node8" class="node">
<title>AppModule</title>
<polygon fill="#8dd3c7" stroke="black" points="768.66,-149.8 765.66,-153.8 744.66,-153.8 741.66,-149.8 685.34,-149.8 685.34,-113.8 768.66,-113.8 768.66,-149.8"/>
<text text-anchor="middle" x="727" y="-127.6" font-family="Times,serif" font-size="14.00">AppModule</text>
</g>
<!-- AppComponent&#45;&gt;AppModule -->
<g id="edge1" class="edge">
<title>AppComponent&#45;&gt;AppModule</title>
<path fill="none" stroke="black" d="M1236,-85.09C1236,-107.01 1236,-140.8 1236,-140.8 1236,-140.8 779.09,-140.8 779.09,-140.8"/>
<polygon fill="black" stroke="black" points="779.09,-137.3 769.09,-140.8 779.09,-144.3 779.09,-137.3"/>
</g>
<!-- HomepageComponent -->
<g id="node2" class="node">
<title>HomepageComponent</title>
<polygon fill="#ffffb3" stroke="black" points="1164.97,-84.8 1023.03,-84.8 1023.03,-48.8 1164.97,-48.8 1164.97,-84.8"/>
<text text-anchor="middle" x="1094" y="-62.6" font-family="Times,serif" font-size="14.00">HomepageComponent</text>
</g>
<!-- HomepageComponent&#45;&gt;AppModule -->
<g id="edge2" class="edge">
<title>HomepageComponent&#45;&gt;AppModule</title>
<path fill="none" stroke="black" d="M1094,-84.91C1094,-104.14 1094,-131.8 1094,-131.8 1094,-131.8 778.74,-131.8 778.74,-131.8"/>
<polygon fill="black" stroke="black" points="778.74,-128.3 768.74,-131.8 778.74,-135.3 778.74,-128.3"/>
</g>
<!-- LoginComponent -->
<g id="node3" class="node">
<title>LoginComponent</title>
<polygon fill="#ffffb3" stroke="black" points="1005.27,-84.8 890.73,-84.8 890.73,-48.8 1005.27,-48.8 1005.27,-84.8"/>
<text text-anchor="middle" x="948" y="-62.6" font-family="Times,serif" font-size="14.00">LoginComponent</text>
</g>
<!-- LoginComponent&#45;&gt;AppModule -->
<g id="edge3" class="edge">
<title>LoginComponent&#45;&gt;AppModule</title>
<path fill="none" stroke="black" d="M948,-84.83C948,-101.2 948,-122.8 948,-122.8 948,-122.8 778.83,-122.8 778.83,-122.8"/>
<polygon fill="black" stroke="black" points="778.83,-119.3 768.83,-122.8 778.83,-126.3 778.83,-119.3"/>
</g>
<!-- NavbarComponent -->
<g id="node4" class="node">
<title>NavbarComponent</title>
<polygon fill="#ffffb3" stroke="black" points="872.03,-84.8 749.97,-84.8 749.97,-48.8 872.03,-48.8 872.03,-84.8"/>
<text text-anchor="middle" x="811" y="-62.6" font-family="Times,serif" font-size="14.00">NavbarComponent</text>
</g>
<!-- NavbarComponent&#45;&gt;AppModule -->
<g id="edge4" class="edge">
<title>NavbarComponent&#45;&gt;AppModule</title>
<path fill="none" stroke="black" d="M759.28,-84.91C759.28,-84.91 759.28,-103.79 759.28,-103.79"/>
<polygon fill="black" stroke="black" points="755.78,-103.79 759.28,-113.79 762.78,-103.79 755.78,-103.79"/>
</g>
<!-- ProblemCreationComponent -->
<g id="node5" class="node">
<title>ProblemCreationComponent</title>
<polygon fill="#ffffb3" stroke="black" points="731.48,-84.8 554.52,-84.8 554.52,-48.8 731.48,-48.8 731.48,-84.8"/>
<text text-anchor="middle" x="643" y="-62.6" font-family="Times,serif" font-size="14.00">ProblemCreationComponent</text>
</g>
<!-- ProblemCreationComponent&#45;&gt;AppModule -->
<g id="edge5" class="edge">
<title>ProblemCreationComponent&#45;&gt;AppModule</title>
<path fill="none" stroke="black" d="M708.33,-84.91C708.33,-84.91 708.33,-103.79 708.33,-103.79"/>
<polygon fill="black" stroke="black" points="704.83,-103.79 708.33,-113.79 711.83,-103.79 704.83,-103.79"/>
</g>
<!-- ProblemSelectionComponent -->
<g id="node6" class="node">
<title>ProblemSelectionComponent</title>
<polygon fill="#ffffb3" stroke="black" points="536.37,-84.8 355.63,-84.8 355.63,-48.8 536.37,-48.8 536.37,-84.8"/>
<text text-anchor="middle" x="446" y="-62.6" font-family="Times,serif" font-size="14.00">ProblemSelectionComponent</text>
</g>
<!-- ProblemSelectionComponent&#45;&gt;AppModule -->
<g id="edge6" class="edge">
<title>ProblemSelectionComponent&#45;&gt;AppModule</title>
<path fill="none" stroke="black" d="M446,-84.83C446,-101.2 446,-122.8 446,-122.8 446,-122.8 675.23,-122.8 675.23,-122.8"/>
<polygon fill="black" stroke="black" points="675.23,-126.3 685.23,-122.8 675.23,-119.3 675.23,-126.3"/>
</g>
<!-- StudentSolutionComponent -->
<g id="node7" class="node">
<title>StudentSolutionComponent</title>
<polygon fill="#ffffb3" stroke="black" points="337.57,-84.8 166.43,-84.8 166.43,-48.8 337.57,-48.8 337.57,-84.8"/>
<text text-anchor="middle" x="252" y="-62.6" font-family="Times,serif" font-size="14.00">StudentSolutionComponent</text>
</g>
<!-- StudentSolutionComponent&#45;&gt;AppModule -->
<g id="edge7" class="edge">
<title>StudentSolutionComponent&#45;&gt;AppModule</title>
<path fill="none" stroke="black" d="M252,-84.91C252,-104.14 252,-131.8 252,-131.8 252,-131.8 675.26,-131.8 675.26,-131.8"/>
<polygon fill="black" stroke="black" points="675.26,-135.3 685.26,-131.8 675.26,-128.3 675.26,-135.3"/>
</g>
<!-- AppComponent  -->
<g id="node9" class="node">
<title>AppComponent </title>
<polygon fill="#80b1d3" stroke="black" points="781.44,-214.8 672.56,-214.8 672.56,-178.8 781.44,-178.8 781.44,-214.8"/>
<text text-anchor="middle" x="727" y="-192.6" font-family="Times,serif" font-size="14.00">AppComponent </text>
</g>
<!-- AppModule&#45;&gt;AppComponent  -->
<g id="edge8" class="edge">
<title>AppModule&#45;&gt;AppComponent </title>
<path fill="none" stroke="black" stroke-dasharray="1,5" d="M727,-149.91C727,-149.91 727,-168.79 727,-168.79"/>
<polygon fill="black" stroke="black" points="723.5,-168.79 727,-178.79 730.5,-168.79 723.5,-168.79"/>
</g>
<!-- AuthService -->
<g id="node10" class="node">
<title>AuthService</title>
<ellipse fill="#fdb462" stroke="black" cx="83" cy="-66.8" rx="59.11" ry="18"/>
<text text-anchor="middle" x="83" y="-62.6" font-family="Times,serif" font-size="14.00">AuthService</text>
</g>
<!-- AuthService&#45;&gt;AppModule -->
<g id="edge9" class="edge">
<title>AuthService&#45;&gt;AppModule</title>
<path fill="none" stroke="black" d="M83,-85.09C83,-107.01 83,-140.8 83,-140.8 83,-140.8 675.24,-140.8 675.24,-140.8"/>
<polygon fill="black" stroke="black" points="675.24,-144.3 685.24,-140.8 675.24,-137.3 675.24,-144.3"/>
</g>
</g>
</svg>
