<?xml version="1.0" encoding="UTF-8" standalone="no"?>
<!DOCTYPE svg PUBLIC "-//W3C//DTD SVG 1.1//EN"
 "http://www.w3.org/Graphics/SVG/1.1/DTD/svg11.dtd">
<!-- Generated by graphviz version 5.0.0 (20220707.1540)
 -->
<!-- Title: dependencies Pages: 1 -->
<svg width="839pt" height="247pt"
 viewBox="0.00 0.00 839.00 246.80" xmlns="http://www.w3.org/2000/svg" xmlns:xlink="http://www.w3.org/1999/xlink">
<g id="graph0" class="graph" transform="scale(1 1) rotate(0) translate(4 242.8)">
<title>dependencies</title>
<polygon fill="white" stroke="transparent" points="-4,4 -4,-242.8 835,-242.8 835,4 -4,4"/>
<text text-anchor="middle" x="415.5" y="-8.2" font-family="sans-serif" font-size="14.00">dependencies</text>
<g id="clust1" class="cluster">
<title>cluster_AppModule</title>
<polygon fill="none" stroke="black" stroke-dasharray="1,5" points="8,-32.8 8,-230.8 823,-230.8 823,-32.8 8,-32.8"/>
</g>
<g id="clust2" class="cluster">
<title>cluster_AppModule_declarations</title>
<polygon fill="none" stroke="black" points="16,-40.8 16,-92.8 815,-92.8 815,-40.8 16,-40.8"/>
</g>
<g id="clust10" class="cluster">
<title>cluster_AppModule_bootstrap</title>
<polygon fill="none" stroke="black" points="400,-170.8 400,-222.8 524,-222.8 524,-170.8 400,-170.8"/>
</g>
<!-- AppComponent -->
<g id="node1" class="node">
<title>AppComponent</title>
<polygon fill="#ffffb3" stroke="black" points="806.94,-84.8 701.06,-84.8 701.06,-48.8 806.94,-48.8 806.94,-84.8"/>
<text text-anchor="middle" x="754" y="-62.6" font-family="Times,serif" font-size="14.00">AppComponent</text>
</g>
<!-- AppModule -->
<g id="node6" class="node">
<title>AppModule</title>
<polygon fill="#8dd3c7" stroke="black" points="503.66,-149.8 500.66,-153.8 479.66,-153.8 476.66,-149.8 420.34,-149.8 420.34,-113.8 503.66,-113.8 503.66,-149.8"/>
<text text-anchor="middle" x="462" y="-127.6" font-family="Times,serif" font-size="14.00">AppModule</text>
</g>
<!-- AppComponent&#45;&gt;AppModule -->
<g id="edge1" class="edge">
<title>AppComponent&#45;&gt;AppModule</title>
<path fill="none" stroke="black" d="M754,-85.08C754,-106.12 754,-137.8 754,-137.8 754,-137.8 513.84,-137.8 513.84,-137.8"/>
<polygon fill="black" stroke="black" points="513.84,-134.3 503.84,-137.8 513.84,-141.3 513.84,-134.3"/>
</g>
<!-- HomepageComponent -->
<g id="node2" class="node">
<title>HomepageComponent</title>
<polygon fill="#ffffb3" stroke="black" points="682.97,-84.8 541.03,-84.8 541.03,-48.8 682.97,-48.8 682.97,-84.8"/>
<text text-anchor="middle" x="612" y="-62.6" font-family="Times,serif" font-size="14.00">HomepageComponent</text>
</g>
<!-- HomepageComponent&#45;&gt;AppModule -->
<g id="edge2" class="edge">
<title>HomepageComponent&#45;&gt;AppModule</title>
<path fill="none" stroke="black" d="M612,-84.82C612,-102.17 612,-125.8 612,-125.8 612,-125.8 513.78,-125.8 513.78,-125.8"/>
<polygon fill="black" stroke="black" points="513.78,-122.3 503.78,-125.8 513.78,-129.3 513.78,-122.3"/>
</g>
<!-- NavbarComponent -->
<g id="node3" class="node">
<title>NavbarComponent</title>
<polygon fill="#ffffb3" stroke="black" points="523.03,-84.8 400.97,-84.8 400.97,-48.8 523.03,-48.8 523.03,-84.8"/>
<text text-anchor="middle" x="462" y="-62.6" font-family="Times,serif" font-size="14.00">NavbarComponent</text>
</g>
<!-- NavbarComponent&#45;&gt;AppModule -->
<g id="edge3" class="edge">
<title>NavbarComponent&#45;&gt;AppModule</title>
<path fill="none" stroke="black" d="M462,-84.91C462,-84.91 462,-103.79 462,-103.79"/>
<polygon fill="black" stroke="black" points="458.5,-103.79 462,-113.79 465.5,-103.79 458.5,-103.79"/>
</g>
<!-- ProblemSelectionComponent -->
<g id="node4" class="node">
<title>ProblemSelectionComponent</title>
<polygon fill="#ffffb3" stroke="black" points="382.37,-84.8 201.63,-84.8 201.63,-48.8 382.37,-48.8 382.37,-84.8"/>
<text text-anchor="middle" x="292" y="-62.6" font-family="Times,serif" font-size="14.00">ProblemSelectionComponent</text>
</g>
<!-- ProblemSelectionComponent&#45;&gt;AppModule -->
<g id="edge4" class="edge">
<title>ProblemSelectionComponent&#45;&gt;AppModule</title>
<path fill="none" stroke="black" d="M292,-84.82C292,-102.17 292,-125.8 292,-125.8 292,-125.8 409.98,-125.8 409.98,-125.8"/>
<polygon fill="black" stroke="black" points="409.98,-129.3 419.98,-125.8 409.98,-122.3 409.98,-129.3"/>
</g>
<!-- TeacherLoginComponent -->
<g id="node5" class="node">
<title>TeacherLoginComponent</title>
<polygon fill="#ffffb3" stroke="black" points="183.84,-84.8 24.16,-84.8 24.16,-48.8 183.84,-48.8 183.84,-84.8"/>
<text text-anchor="middle" x="104" y="-62.6" font-family="Times,serif" font-size="14.00">TeacherLoginComponent</text>
</g>
<!-- TeacherLoginComponent&#45;&gt;AppModule -->
<g id="edge5" class="edge">
<title>TeacherLoginComponent&#45;&gt;AppModule</title>
<path fill="none" stroke="black" d="M104,-85.08C104,-106.12 104,-137.8 104,-137.8 104,-137.8 410.23,-137.8 410.23,-137.8"/>
<polygon fill="black" stroke="black" points="410.23,-141.3 420.23,-137.8 410.23,-134.3 410.23,-141.3"/>
</g>
<!-- AppComponent  -->
<g id="node7" class="node">
<title>AppComponent </title>
<polygon fill="#80b1d3" stroke="black" points="516.44,-214.8 407.56,-214.8 407.56,-178.8 516.44,-178.8 516.44,-214.8"/>
<text text-anchor="middle" x="462" y="-192.6" font-family="Times,serif" font-size="14.00">AppComponent </text>
</g>
<!-- AppModule&#45;&gt;AppComponent  -->
<g id="edge6" class="edge">
<title>AppModule&#45;&gt;AppComponent </title>
<path fill="none" stroke="black" stroke-dasharray="1,5" d="M462,-149.91C462,-149.91 462,-168.79 462,-168.79"/>
<polygon fill="black" stroke="black" points="458.5,-168.79 462,-178.79 465.5,-168.79 458.5,-168.79"/>
</g>
</g>
</svg>
